<svg width="30" height="21" viewBox="0 0 30 21" fill="none" xmlns="http://www.w3.org/2000/svg">
<path d="M0.417969 20V18.5234L3.05469 18.1953V5.41016L0.371094 5.45703V4.01562L5.36328 2.9375V18.1953L7.98828 18.5234V20H0.417969Z" fill="white"/>
<path d="M15.7461 20.2461C14.0742 20.2461 12.75 19.6641 11.7734 18.5C10.7969 17.3359 10.3086 15.668 10.3086 13.4961V9.45312C10.3086 7.28125 10.793 5.61328 11.7617 4.44922C12.7305 3.27734 14.0508 2.69141 15.7227 2.69141C17.4023 2.69141 18.7305 3.27734 19.707 4.44922C20.6836 5.61328 21.1719 7.28125 21.1719 9.45312V13.4961C21.1719 15.6758 20.6875 17.3477 19.7188 18.5117C18.75 19.668 17.4258 20.2461 15.7461 20.2461ZM15.7461 18.4414C16.7695 18.4414 17.543 18.0664 18.0664 17.3164C18.5977 16.5664 18.8633 15.4492 18.8633 13.9648V8.96094C18.8633 7.48438 18.5938 6.375 18.0547 5.63281C17.5234 4.88281 16.7461 4.50781 15.7227 4.50781C14.7148 4.50781 13.9453 4.88281 13.4141 5.63281C12.8828 6.375 12.6172 7.48438 12.6172 8.96094V13.9648C12.6172 15.4414 12.8867 16.5586 13.4258 17.3164C13.9648 18.0664 14.7383 18.4414 15.7461 18.4414Z" fill="white"/>
<path d="M23.2461 7V6.26172L23.9492 6.12695L25.8418 3.79492L23.9902 1.53906L23.3633 1.4043V0.660156H25.8477V1.4043L25.2148 1.47461L26.5156 3.0918L27.7812 1.46875L27.1016 1.4043V0.660156H29.5449V1.4043L28.9004 1.53906L27.1836 3.77734L29.1582 6.12695L29.8145 6.26172V7H27.125V6.26172L27.8867 6.19727L26.498 4.50391L25.1504 6.19727L25.8359 6.26172V7H23.2461Z" fill="white"/>
</svg>
