<svg width="22" height="22" viewBox="0 0 22 22" fill="none" xmlns="http://www.w3.org/2000/svg">
<path d="M0.757812 21.1641V0.9375H2.59766V21.1641H0.757812Z" fill="white"/>
<path d="M4.78906 18V16.5234L6.19531 16.2539L9.98047 11.5898L6.27734 7.07812L5.02344 6.80859V5.32031H9.99219V6.80859L8.72656 6.94922L11.3281 10.1836L13.8594 6.9375L12.5 6.80859V5.32031H17.3867V6.80859L16.0977 7.07812L12.6641 11.5547L16.6133 16.2539L17.9258 16.5234V18H12.5469V16.5234L14.0703 16.3945L11.293 13.0078L8.59766 16.3945L9.96875 16.5234V18H4.78906Z" fill="white"/>
<path d="M20.1641 21.1641V0.9375H22.0039V21.1641H20.1641Z" fill="white"/>
</svg>
