<svg width="29" height="19" viewBox="0 0 29 19" fill="none" xmlns="http://www.w3.org/2000/svg">
<path d="M5.82423 19L2.91798 11.6406H0.714856V9.8125H4.55861L6.46876 15.0156L6.6797 15.9883H6.75001L6.97267 15.0156L11.6484 1.9375H14.0039L7.57032 19H5.82423Z" fill="white"/>
<path d="M14.9766 19V17.5234L16.3828 17.2539L20.168 12.5898L16.4649 8.07812L15.2109 7.80859V6.32031H20.1797V7.80859L18.9141 7.94922L21.5156 11.1836L24.0469 7.9375L22.6875 7.80859V6.32031H27.5742V7.80859L26.2852 8.07812L22.8516 12.5547L26.8008 17.2539L28.1133 17.5234V19H22.7344V17.5234L24.2578 17.3945L21.4805 14.0078L18.7852 17.3945L20.1563 17.5234V19H14.9766Z" fill="white"/>
<path d="M0.473645 8V7.34082L2.80275 4.75293C3.08269 4.44043 3.29917 4.17513 3.45216 3.95703C3.60841 3.73893 3.71746 3.54036 3.77931 3.36133C3.84116 3.17904 3.87208 2.99349 3.87208 2.80469C3.87208 2.44987 3.76466 2.15202 3.54982 1.91113C3.33497 1.66699 3.02736 1.54492 2.62697 1.54492C2.2103 1.54492 1.88478 1.67025 1.6504 1.9209C1.41928 2.17155 1.30372 2.52637 1.30372 2.98535H0.380872L0.371106 2.95605C0.361341 2.5459 0.447604 2.17806 0.629895 1.85254C0.812187 1.52376 1.07586 1.26497 1.42091 1.07617C1.76922 0.884115 2.18263 0.788086 2.66115 0.788086C3.11036 0.788086 3.49611 0.874349 3.81837 1.04688C4.14389 1.21615 4.39454 1.44889 4.57032 1.74512C4.74611 2.04134 4.834 2.38151 4.834 2.76562C4.834 3.02604 4.78191 3.28483 4.67775 3.54199C4.57684 3.79915 4.42872 4.06283 4.23341 4.33301C4.0381 4.60319 3.80047 4.88802 3.52052 5.1875L1.6504 7.22363L1.66017 7.24805H4.18458L4.26271 6.43262H5.07814V8H0.473645Z" fill="white"/>
</svg>
