<svg width="22" height="22" viewBox="0 0 22 22" fill="none" xmlns="http://www.w3.org/2000/svg">
<path d="M0.492188 22V20.5234L1.89844 20.2539L5.68359 15.5898L1.98047 11.0781L0.726562 10.8086V9.32031H5.69531V10.8086L4.42969 10.9492L7.03125 14.1836L9.5625 10.9375L8.20312 10.8086V9.32031H13.0898V10.8086L11.8008 11.0781L8.36719 15.5547L12.3164 20.2539L13.6289 20.5234V22H8.25V20.5234L9.77344 20.3945L6.99609 17.0078L4.30078 20.3945L5.67188 20.5234V22H0.492188Z" fill="white"/>
<path d="M15.5684 9V8.20898L18.3633 5.10352C18.6992 4.72852 18.959 4.41016 19.1426 4.14844C19.3301 3.88672 19.4609 3.64844 19.5352 3.43359C19.6094 3.21484 19.6465 2.99219 19.6465 2.76562C19.6465 2.33984 19.5176 1.98242 19.2598 1.69336C19.002 1.40039 18.6328 1.25391 18.1523 1.25391C17.6523 1.25391 17.2617 1.4043 16.9805 1.70508C16.7031 2.00586 16.5645 2.43164 16.5645 2.98242H15.457L15.4453 2.94727C15.4336 2.45508 15.5371 2.01367 15.7559 1.62305C15.9746 1.22852 16.291 0.917969 16.7051 0.691406C17.123 0.460938 17.6191 0.345703 18.1934 0.345703C18.7324 0.345703 19.1953 0.449219 19.582 0.65625C19.9727 0.859375 20.2734 1.13867 20.4844 1.49414C20.6953 1.84961 20.8008 2.25781 20.8008 2.71875C20.8008 3.03125 20.7383 3.3418 20.6133 3.65039C20.4922 3.95898 20.3145 4.27539 20.0801 4.59961C19.8457 4.92383 19.5605 5.26562 19.2246 5.625L16.9805 8.06836L16.9922 8.09766H20.0215L20.1152 7.11914H21.0938V9H15.5684Z" fill="white"/>
</svg>
