<svg width="22" height="20" viewBox="0 0 22 20" fill="none" xmlns="http://www.w3.org/2000/svg">
<path d="M0.492188 20V18.5234L1.89844 18.2539L5.68359 13.5898L1.98047 9.07812L0.726562 8.80859V7.32031H5.69531V8.80859L4.42969 8.94922L7.03125 12.1836L9.5625 8.9375L8.20312 8.80859V7.32031H13.0898V8.80859L11.8008 9.07812L8.36719 13.5547L12.3164 18.2539L13.6289 18.5234V20H8.25V18.5234L9.77344 18.3945L6.99609 15.0078L4.30078 18.3945L5.67188 18.5234V20H0.492188Z" fill="white"/>
<path d="M16.8105 9.56055C16.7207 9.56055 16.6035 9.54883 16.459 9.52539C16.3145 9.50586 16.2031 9.48633 16.125 9.4668L16.2422 8.55859C16.3086 8.56641 16.4004 8.57227 16.5176 8.57617C16.6348 8.58398 16.7148 8.58789 16.7578 8.58789C17.0039 8.58789 17.2031 8.49414 17.3555 8.30664C17.5117 8.11914 17.6562 7.86328 17.7891 7.53906L18.0645 6.87109L15.8203 1.49805L15.1406 1.4043V0.660156H17.8008V1.4043L17.0332 1.52148L18.2695 4.69141L18.5684 5.51758H18.6035L20.0684 1.52148L19.2598 1.4043V0.660156H21.8672V1.4043L21.2109 1.49805L18.7148 7.97266C18.5977 8.27734 18.4551 8.54883 18.2871 8.78711C18.123 9.0293 17.9199 9.21875 17.6777 9.35547C17.4395 9.49219 17.1504 9.56055 16.8105 9.56055Z" fill="white"/>
</svg>
